<svg width="1000" height="336" viewBox="0 0 1000 336" fill="none" xmlns="http://www.w3.org/2000/svg">
<g clip-path="url(#clip0)">
<path fill-rule="evenodd" clip-rule="evenodd" d="M221.019 300.67C217.273 306.174 212.006 312.328 205.219 319.132C178.908 345.507 118.395 332.32 118.395 332.32C118.395 332.32 149.967 329.682 163.122 321.77C171.892 316.495 178.401 309.407 182.647 300.505L182.653 300.503C183.703 298.233 184.687 295.859 185.605 293.38L245.382 133.626H204.056L177.896 213.313C175.2 220.999 173.389 229.191 172.462 237.891H171.703C170.861 228.431 169.302 220.239 167.027 213.313L140.361 133.626H98.1509L154.263 274.25L151.988 281.218C149.124 289.664 145.143 295.977 140.046 300.158C139.833 300.332 139.619 300.503 139.403 300.67H45.37C20.3128 300.67 0 280.307 0 255.189V45.4812C0 20.3626 20.3128 0 45.37 0H507.142C532.199 0 552.512 20.3626 552.512 45.4812V255.189C552.512 280.307 532.199 300.67 507.142 300.67H221.019ZM329.551 277.797C340.588 277.797 349.94 276.974 357.607 275.327C365.274 273.68 372.477 271.167 379.218 267.789V237.891C370.961 241.776 363.041 244.605 355.458 246.379C347.876 248.152 339.829 249.039 331.32 249.039C320.367 249.039 311.858 245.956 305.791 239.791C299.725 233.625 296.482 225.053 296.06 214.073H387.179V195.323C387.179 175.222 381.619 159.47 370.497 148.068C359.376 136.666 343.832 130.965 323.864 130.965C302.969 130.965 286.603 137.447 274.765 150.412C262.928 163.377 257.009 181.725 257.009 205.458C257.009 228.516 263.412 246.336 276.219 258.921C289.025 271.505 306.802 277.797 329.551 277.797ZM517.097 233.203C517.097 226.193 515.875 220.154 513.432 215.087C510.989 210.019 507.197 205.543 502.058 201.658C496.918 197.772 488.83 193.592 477.793 189.115C465.408 184.132 457.383 180.374 453.718 177.84C450.053 175.306 448.22 172.308 448.22 168.845C448.22 162.68 453.907 159.597 465.282 159.597C471.685 159.597 477.961 160.568 484.112 162.511C490.262 164.453 496.876 166.945 503.953 169.985L515.58 142.114C499.488 134.681 482.933 130.965 465.913 130.965C448.052 130.965 434.256 134.407 424.524 141.29C414.793 148.174 409.928 157.908 409.928 170.492C409.928 177.84 411.086 184.027 413.403 189.052C415.72 194.077 419.427 198.533 424.524 202.418C429.622 206.303 437.604 210.526 448.473 215.087C456.056 218.296 462.122 221.104 466.672 223.511C471.221 225.918 474.423 228.072 476.276 229.972C478.13 231.873 479.057 234.343 479.057 237.384C479.057 245.492 472.064 249.546 458.078 249.546C451.253 249.546 443.355 248.406 434.382 246.125C425.409 243.845 417.342 241.016 410.18 237.637V269.563C416.499 272.265 423.282 274.314 430.527 275.707C437.773 277.101 446.535 277.797 456.814 277.797C476.866 277.797 491.926 273.997 501.995 266.395C512.063 258.794 517.097 247.73 517.097 233.203ZM358.446 191.781C358.446 174.129 344.136 159.818 326.483 159.818C308.83 159.818 294.52 174.129 294.52 191.781H358.446ZM623.351 200.96H612.596V154.812H627.464C636.391 154.812 642.946 156.655 647.129 160.341C651.312 164.028 653.403 169.734 653.403 177.461C653.403 185.117 650.908 190.947 645.917 194.952C640.925 198.958 633.404 200.96 623.351 200.96ZM670.854 214.677C681.223 205.816 686.407 193.021 686.407 176.291C686.407 160.199 681.539 148.095 671.803 139.979C662.067 131.862 647.85 127.804 629.151 127.804H579.908V283.261H612.596V227.969H626.62C645.741 227.969 660.485 223.538 670.854 214.677ZM715.51 127.804V283.261H810.726V256.04H748.198V127.804H715.51ZM837.509 127.804V283.261H870.197V127.804H837.509ZM984.974 273.266C994.991 265.185 1000 254.126 1000 240.091C1000 229.953 997.328 221.394 991.986 214.411C986.643 207.429 976.767 200.464 962.356 193.517C951.46 188.271 944.553 184.638 941.636 182.618C938.719 180.598 936.592 178.506 935.257 176.344C933.921 174.182 933.253 171.648 933.253 168.742C933.253 164.063 934.905 160.27 938.209 157.364C941.513 154.458 946.258 153.004 952.444 153.004C957.646 153.004 962.936 153.678 968.313 155.025C973.691 156.372 980.492 158.746 988.717 162.149L999.261 136.523C991.318 133.049 983.708 130.356 976.433 128.442C969.157 126.528 961.512 125.571 953.498 125.571C937.19 125.571 924.413 129.505 915.169 137.374C905.925 145.242 901.303 156.053 901.303 169.805C901.303 177.106 902.709 183.486 905.521 188.945C908.333 194.403 912.094 199.188 916.804 203.3C921.514 207.411 928.578 211.7 937.998 216.166C948.051 220.986 954.711 224.495 957.98 226.693C961.249 228.89 963.727 231.176 965.414 233.551C967.101 235.926 967.944 238.637 967.944 241.685C967.944 247.144 966.029 251.255 962.198 254.02C958.366 256.785 952.866 258.167 945.695 258.167C939.72 258.167 933.13 257.21 925.925 255.296C918.719 253.382 909.915 250.086 899.511 245.407V276.031C912.164 282.269 926.715 285.388 943.165 285.388C961.02 285.388 974.956 281.347 984.974 273.266Z" fill="white"/>
</g>
<defs>
<clipPath id="clip0">
<rect width="1000" height="335.616" fill="white"/>
</clipPath>
</defs>
</svg>
